# Blender v2.79 (sub 0) OBJ File: ''
# www.blender.org
mtllib plane4.mtl
o Plane
v -3.888890 3.888889 -0.000000
v -3.888890 5.000000 0.000001
v -5.000001 4.999999 0.000001
v -5.000000 3.888889 0.000001
v 5.000000 3.888890 0.000000
v 4.999999 5.000001 0.000000
v 3.888888 5.000000 0.000000
v 3.888888 3.888890 0.000000
v 2.777777 5.000000 0.000000
v 2.777777 3.888890 0.000000
v 1.666666 5.000000 0.000000
v 1.666666 3.888890 0.000000
v 0.555554 5.000000 0.000000
v 0.555554 3.888890 0.000000
v -0.555557 5.000000 0.000000
v -0.555557 3.888890 0.000000
v -1.666668 5.000000 -0.000000
v -1.666668 3.888890 -0.000000
v -2.777779 5.000000 -0.000000
v -2.777779 3.888889 -0.000000
v -2.777777 -5.000000 -0.000000
v -2.777777 -3.888889 -0.000000
v -3.888888 -3.888889 -0.000000
v -3.888888 -5.000000 -0.000000
v -2.777777 -2.777778 -0.000000
v -3.888888 -2.777778 -0.000000
v -2.777777 -1.666667 -0.000000
v -3.888889 -1.666667 -0.000000
v -2.777778 -0.555556 -0.000000
v -3.888889 -0.555556 -0.000000
v -2.777778 0.555555 -0.000000
v -3.888889 0.555555 -0.000000
v -2.777778 1.666667 -0.000000
v -3.888890 1.666667 -0.000000
v -2.777779 2.777778 -0.000000
v -3.888890 2.777778 -0.000000
v -1.666666 -5.000000 -0.000000
v -1.666666 -3.888889 -0.000000
v -1.666666 -2.777777 -0.000000
v -1.666667 -1.666667 -0.000000
v -1.666667 -0.555556 -0.000000
v -1.666667 0.555555 -0.000000
v -1.666667 1.666667 -0.000000
v -1.666668 2.777778 -0.000000
v -0.555554 -5.000000 -0.000000
v -0.555554 -3.888889 -0.000000
v -0.555554 -2.777777 0.000000
v -0.555555 -1.666667 0.000000
v -0.555555 -0.555556 0.000000
v -0.555555 0.555555 -0.000000
v -0.555556 1.666667 -0.000000
v -0.555556 2.777778 -0.000000
v 0.555557 -5.000000 0.000000
v 0.555557 -3.888889 0.000000
v 0.555557 -2.777777 0.000000
v 0.555556 -1.666667 0.000000
v 0.555556 -0.555556 0.000000
v 0.555556 0.555555 0.000000
v 0.555556 1.666667 0.000000
v 0.555554 2.777778 0.000000
v 1.666668 -5.000000 0.000000
v 1.666668 -3.888889 0.000000
v 1.666668 -2.777777 0.000000
v 1.666667 -1.666666 0.000000
v 1.666667 -0.555555 0.000000
v 1.666667 0.555556 0.000000
v 1.666667 1.666668 0.000000
v 1.666666 2.777778 0.000000
v 2.777779 -5.000000 0.000000
v 2.777779 -3.888888 0.000000
v 2.777779 -2.777777 0.000000
v 2.777778 -1.666666 0.000000
v 2.777778 -0.555555 0.000000
v 2.777778 0.555556 0.000000
v 2.777777 1.666668 0.000000
v 2.777777 2.777779 0.000000
v 3.888890 -5.000000 -0.000001
v 3.888890 -3.888888 0.000000
v 3.888890 -2.777777 0.000000
v 3.888890 -1.666666 0.000000
v 3.888889 -0.555555 0.000000
v 3.888889 0.555556 0.000000
v 3.888889 1.666668 0.000000
v 3.888888 2.777779 0.000000
v 5.000001 -4.999999 -0.000001
v 5.000000 -3.888888 -0.000001
v 5.000000 -2.777777 0.000001
v 5.000000 -1.666666 0.000001
v 5.000000 -0.555554 0.000001
v 5.000000 0.555557 0.000000
v 5.000000 1.666668 0.000000
v 5.000000 2.777779 0.000000
v -5.000000 -3.888889 -0.000000
v -4.999999 -5.000001 -0.000000
v -5.000000 -2.777778 -0.000000
v -5.000000 -1.666667 -0.000000
v -5.000000 -0.555557 -0.000000
v -5.000000 0.555554 -0.000001
v -5.000000 1.666667 -0.000001
v -5.000000 2.777778 -0.000000
vt 0.888811 0.888811
vt 0.999900 0.888811
vt 0.999900 0.999900
vt 0.888811 0.999900
vt 0.888811 0.000100
vt 0.999900 0.000100
vt 0.999900 0.111189
vt 0.888811 0.111189
vt 0.999900 0.222278
vt 0.888811 0.222278
vt 0.999900 0.333367
vt 0.888811 0.333367
vt 0.999900 0.444456
vt 0.888811 0.444456
vt 0.999900 0.555544
vt 0.888811 0.555544
vt 0.999900 0.666633
vt 0.888811 0.666633
vt 0.999900 0.777722
vt 0.888811 0.777722
vt 0.000100 0.777722
vt 0.111189 0.777722
vt 0.111189 0.888811
vt 0.000100 0.888811
vt 0.222278 0.777722
vt 0.222278 0.888811
vt 0.333367 0.777722
vt 0.333367 0.888811
vt 0.444456 0.777722
vt 0.444456 0.888811
vt 0.555544 0.777722
vt 0.555544 0.888811
vt 0.666633 0.777722
vt 0.666633 0.888811
vt 0.777722 0.777722
vt 0.777722 0.888811
vt 0.000100 0.666633
vt 0.111189 0.666633
vt 0.222278 0.666633
vt 0.333367 0.666633
vt 0.444456 0.666633
vt 0.555544 0.666633
vt 0.666633 0.666633
vt 0.777722 0.666633
vt 0.000100 0.555544
vt 0.111189 0.555544
vt 0.222278 0.555544
vt 0.333367 0.555544
vt 0.444456 0.555544
vt 0.555544 0.555544
vt 0.666633 0.555544
vt 0.777722 0.555544
vt 0.000100 0.444456
vt 0.111189 0.444456
vt 0.222278 0.444456
vt 0.333367 0.444456
vt 0.444456 0.444456
vt 0.555544 0.444456
vt 0.666633 0.444456
vt 0.777722 0.444456
vt 0.000100 0.333367
vt 0.111189 0.333367
vt 0.222278 0.333367
vt 0.333367 0.333367
vt 0.444456 0.333367
vt 0.555545 0.333367
vt 0.666633 0.333367
vt 0.777722 0.333367
vt 0.000100 0.222278
vt 0.111189 0.222278
vt 0.222278 0.222278
vt 0.333367 0.222278
vt 0.444456 0.222278
vt 0.555544 0.222278
vt 0.666633 0.222278
vt 0.777722 0.222278
vt 0.000100 0.111189
vt 0.111189 0.111189
vt 0.222278 0.111189
vt 0.333367 0.111189
vt 0.444456 0.111189
vt 0.555544 0.111189
vt 0.666633 0.111189
vt 0.777722 0.111189
vt 0.000100 0.000100
vt 0.111189 0.000100
vt 0.222278 0.000100
vt 0.333367 0.000100
vt 0.444456 0.000100
vt 0.555544 0.000100
vt 0.666633 0.000100
vt 0.777722 0.000100
vt 0.111189 0.999900
vt 0.000100 0.999900
vt 0.222278 0.999900
vt 0.333367 0.999900
vt 0.444456 0.999900
vt 0.555544 0.999900
vt 0.666633 0.999900
vt 0.777722 0.999900
vn 0.0000 -0.0000 1.0000
usemtl None
s 1
f 1/1/1 2/2/1 3/3/1 4/4/1
f 5/5/1 6/6/1 7/7/1 8/8/1
f 8/8/1 7/7/1 9/9/1 10/10/1
f 10/10/1 9/9/1 11/11/1 12/12/1
f 12/12/1 11/11/1 13/13/1 14/14/1
f 14/14/1 13/13/1 15/15/1 16/16/1
f 16/16/1 15/15/1 17/17/1 18/18/1
f 18/18/1 17/17/1 19/19/1 20/20/1
f 20/20/1 19/19/1 2/2/1 1/1/1
f 21/21/1 22/22/1 23/23/1 24/24/1
f 22/22/1 25/25/1 26/26/1 23/23/1
f 25/25/1 27/27/1 28/28/1 26/26/1
f 27/27/1 29/29/1 30/30/1 28/28/1
f 29/29/1 31/31/1 32/32/1 30/30/1
f 31/31/1 33/33/1 34/34/1 32/32/1
f 33/33/1 35/35/1 36/36/1 34/34/1
f 35/35/1 20/20/1 1/1/1 36/36/1
f 37/37/1 38/38/1 22/22/1 21/21/1
f 38/38/1 39/39/1 25/25/1 22/22/1
f 39/39/1 40/40/1 27/27/1 25/25/1
f 40/40/1 41/41/1 29/29/1 27/27/1
f 41/41/1 42/42/1 31/31/1 29/29/1
f 42/42/1 43/43/1 33/33/1 31/31/1
f 43/43/1 44/44/1 35/35/1 33/33/1
f 44/44/1 18/18/1 20/20/1 35/35/1
f 45/45/1 46/46/1 38/38/1 37/37/1
f 46/46/1 47/47/1 39/39/1 38/38/1
f 47/47/1 48/48/1 40/40/1 39/39/1
f 48/48/1 49/49/1 41/41/1 40/40/1
f 49/49/1 50/50/1 42/42/1 41/41/1
f 50/50/1 51/51/1 43/43/1 42/42/1
f 51/51/1 52/52/1 44/44/1 43/43/1
f 52/52/1 16/16/1 18/18/1 44/44/1
f 53/53/1 54/54/1 46/46/1 45/45/1
f 54/54/1 55/55/1 47/47/1 46/46/1
f 55/55/1 56/56/1 48/48/1 47/47/1
f 56/56/1 57/57/1 49/49/1 48/48/1
f 57/57/1 58/58/1 50/50/1 49/49/1
f 58/58/1 59/59/1 51/51/1 50/50/1
f 59/59/1 60/60/1 52/52/1 51/51/1
f 60/60/1 14/14/1 16/16/1 52/52/1
f 61/61/1 62/62/1 54/54/1 53/53/1
f 62/62/1 63/63/1 55/55/1 54/54/1
f 63/63/1 64/64/1 56/56/1 55/55/1
f 64/64/1 65/65/1 57/57/1 56/56/1
f 65/65/1 66/66/1 58/58/1 57/57/1
f 66/66/1 67/67/1 59/59/1 58/58/1
f 67/67/1 68/68/1 60/60/1 59/59/1
f 68/68/1 12/12/1 14/14/1 60/60/1
f 69/69/1 70/70/1 62/62/1 61/61/1
f 70/70/1 71/71/1 63/63/1 62/62/1
f 71/71/1 72/72/1 64/64/1 63/63/1
f 72/72/1 73/73/1 65/65/1 64/64/1
f 73/73/1 74/74/1 66/66/1 65/65/1
f 74/74/1 75/75/1 67/67/1 66/66/1
f 75/75/1 76/76/1 68/68/1 67/67/1
f 76/76/1 10/10/1 12/12/1 68/68/1
f 77/77/1 78/78/1 70/70/1 69/69/1
f 78/78/1 79/79/1 71/71/1 70/70/1
f 79/79/1 80/80/1 72/72/1 71/71/1
f 80/80/1 81/81/1 73/73/1 72/72/1
f 81/81/1 82/82/1 74/74/1 73/73/1
f 82/82/1 83/83/1 75/75/1 74/74/1
f 83/83/1 84/84/1 76/76/1 75/75/1
f 84/84/1 8/8/1 10/10/1 76/76/1
f 85/85/1 86/86/1 78/78/1 77/77/1
f 86/86/1 87/87/1 79/79/1 78/78/1
f 87/87/1 88/88/1 80/80/1 79/79/1
f 88/88/1 89/89/1 81/81/1 80/80/1
f 89/89/1 90/90/1 82/82/1 81/81/1
f 90/90/1 91/91/1 83/83/1 82/82/1
f 91/91/1 92/92/1 84/84/1 83/83/1
f 92/92/1 5/5/1 8/8/1 84/84/1
f 24/24/1 23/23/1 93/93/1 94/94/1
f 23/23/1 26/26/1 95/95/1 93/93/1
f 26/26/1 28/28/1 96/96/1 95/95/1
f 28/28/1 30/30/1 97/97/1 96/96/1
f 30/30/1 32/32/1 98/98/1 97/97/1
f 32/32/1 34/34/1 99/99/1 98/98/1
f 34/34/1 36/36/1 100/100/1 99/99/1
f 36/36/1 1/1/1 4/4/1 100/100/1
